<svg id="Capa_1" enable-background="new 0 0 510 510" height="512" viewBox="0 0 510 510" width="512" xmlns="http://www.w3.org/2000/svg"><g><path d="m443.915 153.29-29.31 6.39c-16.38-75.14-84.18-129.68-161.22-129.68h-.62v-30h.62c44.76 0 88.49 15.55 123.12 43.78 34.14 27.82 58.08 66.72 67.41 109.51z" fill="#ff9f22"/><path d="m252.765 0v30c-77.86.29-145.54 55.67-161.06 131.89l-29.4-5.99c8.84-43.41 32.62-82.94 66.97-111.31 34.65-28.62 78.48-44.44 123.49-44.59z" fill="#ffda44"/><path d="m445.69 162.519-2.1-12.519h-87.211l.562 90h56.729c19.142 0 34.714-15.572 34.714-34.714v-10.286c.001-10.893-.906-21.82-2.694-32.481z" fill="#fff68e"/><path d="m486.955 495v15h-234.19v-210h34c59.69 0 115.28 25.29 152.51 69.38l.57.68c31.26 37.02 47.11 79.05 47.11 124.94z" fill="#2682ff"/><path d="m252.765 300v210h-229.72v-15c0-45.89 15.85-87.92 47.11-124.94l.57-.68c37.24-44.09 92.83-69.38 152.52-69.38z" fill="#2fc0f0"/><path d="m387.145 195.34c0 74.1-60.28 134.38-134.38 134.38l-13.82-130.896 13.82-137.864c74.1 0 134.38 60.28 134.38 134.38z" fill="#2fc0f0"/><path d="m252.765 60.96v268.76c-74.1 0-134.38-60.28-134.38-134.38s60.28-134.38 134.38-134.38z" fill="#9ee2f8"/><g fill="#fff68e"><path d="m118.385 195.34c0-15.905 2.784-31.169 7.879-45.341l-63.083-.004-2.101 12.523c-1.789 10.662-2.695 21.591-2.695 32.482v10.286c0 19.142 15.573 34.714 34.714 34.714h32.924c-4.94-13.98-7.638-29.01-7.638-44.66z"/><path d="m99.297 210h134.088v30h-134.088z"/></g></g></svg>